<?xml version="1.0" encoding="utf-8"?>
<!-- Generator: Adobe Illustrator 18.1.1, SVG Export Plug-In . SVG Version: 6.00 Build 0)  -->
<svg version="1.1"
	 id="svg13439" sodipodi:docname="finallogo.svg" inkscape:version="0.48.5 r10040" xmlns:inkscape="http://www.inkscape.org/namespaces/inkscape" xmlns:sodipodi="http://sodipodi.sourceforge.net/DTD/sodipodi-0.dtd" xmlns:cc="http://creativecommons.org/ns#" xmlns:rdf="http://www.w3.org/1999/02/22-rdf-syntax-ns#" xmlns:svg="http://www.w3.org/2000/svg" xmlns:dc="http://purl.org/dc/elements/1.1/"
	 xmlns="http://www.w3.org/2000/svg" xmlns:xlink="http://www.w3.org/1999/xlink" x="0px" y="0px"
	 viewBox="-3872 4873.8 475.5 226.8" enable-background="new -3872 4873.8 475.5 226.8" xml:space="preserve">
<path fill="#229AFF" d="M-3690.5,5039.5c-17.2,22.4-43.2,35.3-71.5,35.3c-49.6,0-90-40.4-90-90s40.4-90,90-90
	c35.7,0,69.6,11.5,97.8,33.2l74.9,58.5l-26.6,34.1h25.4l29.3-37.5l-90.7-70.9c-31.8-24.5-69.8-37.4-110-37.4
	c-60.7,0-110,49.3-110,110s49.3,110,110,110c34.5,0,66.3-15.7,87.3-43.1l47.5-60.8l4.8-6.1l-25.3,0L-3690.5,5039.5z"/>
<path fill="#F2F2F2" d="M-3508.2,4874.8c-34.5,0-66.3,15.7-87.3,43.1l-46.9,60l-5.4,7l25.3,0l42.8-54.7
	c17.2-22.4,43.2-35.3,71.5-35.3c49.6,0,90,40.4,90,90s-40.4,90-90,90c-35.7,0-69.6-11.5-97.8-33.2l-74.9-58.5l26.6-34.1h-25.4
	l-29.3,37.5l90.7,70.9c31.8,24.5,69.8,37.4,110,37.4c60.7,0,110-49.3,110-110S-3447.5,4874.8-3508.2,4874.8z"/>
</svg>
